<svg xmlns="http://www.w3.org/2000/svg" width="1608" height="771" viewBox="0 0 1608 771"><path fill="#1c172c" d="M123.34 202.526c3.609-14.094 15.049-21.778 29.136-22.354 5.56-.228 11.002-.23 16.563-.244l28.068-.024h84.85l75.897-.063c11.24-.005 35.787-1.093 45.554 1.411 7.699 1.974 14.004 7.045 17.98 13.913 6.988 12.056 3.121 28.668 4.146 42.002-.318 6.993-.161 15.018-.169 22.106l.04 42.203.05 134.321c-.035 26.54-.62 53.17-.106 79.638.048 2.45.048 12.32.377 13.688.927.542.868.55 1.916.718 5.586-.369 16.87-.79 20.932 2.636 7.44 6.28 4.307 21.08-6.944 21.22-5.273.068-10.137.185-15.091.15l-23.94-.082-82.249-.047-140.39.015-46.517.024c-8.07.004-16.219.07-24.283-.036-2.79-.05-7.199-.526-9.107-2.749-11.185-13.044.12-23.028 14.332-21.523 1.722.18 6.504.007 7.928.023.44-1.547.099-13.374.08-15.824l-.21-37.541.425-187.625q-.24-31.065.033-62.13c.049-5.811-.515-18.884.7-23.826m81.646 313.792c-1.3-2.054-1.275-3.342-1.33-5.77-.548-24.088-.666-48.168-.6-72.253l.101-89.062-.137-43.932c-.027-4.04.055-10.397-.104-14.312-.81-19.899 5.934-21.347 23.749-20.46 7.424.37 18.612-1.687 24.833 4.295 2.132 2.062 1.434 6.623 1.76 9.4-.06 10.948-.221 21.885-.206 32.836l-.119 112.045v58.047c0 8.562.06 17.152.032 25.714-.004 1.477-1.015 2.902-1.886 4.022q-1.576 1.386-3.101 2.836c3.736.687 63.903.416 65.647-.205-2.991-2.447-4.485-4.289-5.785-8-4.308-12.294-6.014-25.624-8.957-38.299l-18.663-78.29c-5.71-23.315-12.829-46.391-18.147-69.806-.27-1.192-.049-4.97-.008-6.326 4.46-4.517 8.67-5.494 14.645-7.183 7.029-1.985 11.746-4.02 19.051-1.66 4.696 7.219 7.996 24.802 10.315 33.681a3267 3267 0 0 1 14.184 55.049c3.58 14.886 6.523 28.691 10.36 44.752 4.64 19.43 12.796 43.35 15.75 63.463.32 2.18-3.897 6.257-6.022 7.67-5.7 3.795-12.756 3.304-18.224 5.173 4.778.762 35.003 1.03 38.305-.393 1.21-6.378.104-20.49.145-27.58l.547-71.683-.05-158.972c-.128-17.056.165-34.105.002-51.158-.026-2.795-1.359-6.657-3.288-8.711-3.239-3.448-9.572-3.655-14.054-3.678-10.189-.054-20.402.028-30.601.033l-61.352.004-34.035.004c-6.078.003-12.346-.25-18.397.242-15.11 1.227-12.582 14.65-12.527 25.434l.07 25.902q-.353 44.989.014 89.978c.442 59.81-.75 120.65.667 180.362 3.472.142 18.854.821 21.232-.035zM165.566 314.1a450 450 0 0 0-20.572-.1c-9.941 2.22-5.645 11.875-6.616 18.471-2.691 18.286 11.224 15.576 25.511 14.591 7.097-2.96 7.092-9.499 7.054-16.147-.038-6.623.241-12.271-5.376-16.815M385.19 202.76c-2.86.632-4.779 1.191-6.367 3.825-3.06 5.078-3.805 25.103 1.525 28.389 2.283 1.408 18.228.81 21.749.733 9.548-1.098 7.365-16.915 7.13-23.723-.071-2.063-1.48-6.129-3.37-7.335-3.599-2.322-16.504-2.38-20.667-1.889m17.987 144.428c2.842-.9 3.262-1.754 5.048-4.156.463-4.11.573-9.495.809-13.187 1.13-17.72-5.583-15.89-19.94-15.876-1.603.002-3.987-.01-5.75.026-9.277 3.547-5.777 12.863-6.552 20.602-1.572 15.699 16.11 13.956 26.385 12.59M146.508 203.26c-2.883.246-3.583.523-5.767 2.338l-.499.408-.298.253c-2.565 6.339-.26 8.059-.841 13.267-2.344 20.978 8.039 16.077 24.109 16.392 5.238-.554 7.408-4.952 7.448-10.233.044-5.916 1.3-16.515-3.074-21.042-2.47-2.015-18.02-1.51-21.078-1.383m257.61 88.246c.503-.345 1.972-1.258 2.239-1.666 2.382-3.364 2.657-7.898 2.485-11.97-.256-5.905 1.554-14.785-4.02-18.507-3.958-1.023-21.124-1.034-24.339 1.11-5.448 3.63-4.857 23.352-1.442 28.175 2.959 4.18 20.202 3.327 25.078 2.858m-240.05 166.065c2.92-.903 3.763-1.645 5.901-3.853.37-7.124 2.168-20.494-2.35-25.958-.571-.687-1.74-1.606-2.484-2.164-5.708-.377-15.087-.341-20.95-.165-5.372 2.168-5.84 6.63-5.913 12.266-.066 5.028-1.22 17.922 5.155 19.725 5.507 1.226 15.014.978 20.641.15m3.724-56.625c3.357-3.613 2.877-10.85 2.891-15.56.014-4.377.15-10.072-3.257-13.2-4.762-3.925-13.558-2.26-19.444-2.384-12.745-.18-9.492 16.23-9.496 24.46-.003 5.207 4.49 9.206 9.464 8.746 4.443-.408 17.224 1.446 19.842-2.062m1.867 107.92c.568-6.621.485-16.712-.069-23.314l-2.546-3.123c-3.548-2.203-8.968-1.433-13.091-1.406-3.619.157-11.913-1.146-13.78 2.553-2.479 4.918-3.99 26.17 1.48 28.684 4.53 2.082 20.745 2.266 25.392-.487zm207.415-22.387c-.298 23.346-3.771 28.499 22.766 26.987 2.571-.145 4.283-.409 6.273-2.058 3.443-3.425 2.595-9.305 2.752-13.987.161-5.003.334-10.082-2.717-14.253-5.935-4.23-23.984-4.026-28.37 2.254q-.36.523-.704 1.057M165.577 291.513c4.482-2.534 5.42-7.272 5.352-11.773-.081-5.411 1.137-19.142-6.1-20.139-5.073-.698-15.903-1.023-20.791-.285-4.836 1.59-6.21 5.651-6.027 10.434.291 7.6-1.882 15.427 4.296 20.96 4.857.916 18.391 1.449 23.27.803M386.78 425.177c-4.91.212-7.17 1.815-9.758 5.994-1.7 22.061-1.702 29.7 22.72 26.77 13.375-1.327 9.492-12.564 9.7-22.352.055-2.521-1.821-7.215-3.984-8.876-3.46-2.133-14.452-1.575-18.678-1.536m-2.463-55.444c-8.417 2.23-7.429 8.19-7.694 15.43-.17 4.684.286 14.472 5.35 16.487 4.305 1.713 15.507 1.422 20.128.904 8.413-1.685 7.039-7.2 7.38-14.19.413-8.374.664-18.922-10.623-18.951-4.79-.012-9.772-.15-14.541.32"/><path fill="#b4a0cc" d="M295.559 234.42c.408.198 1.775.788 1.94 1.148 1.643 3.588 2.26 8.428 4.115 11.892 2.855 5.332 11.438 6.91 16.973 8.599l.209.398c-1.39.941-7.392 2.094-10.345 3.69-9.64 5.208-7.78 12.99-11.475 18.891l-.99.347c-.285-.248-3.504-11.607-5.972-14.821-4.284-5.58-12.732-5.822-14.9-7.986.797-1.455 7.176-3.242 9.226-4.187 7.529-3.475 8.43-10.877 11.219-17.97"/><path fill="#b4a0cc" d="M204.986 516.318c-1.3-2.054-1.275-3.342-1.33-5.77-.548-24.088-.666-48.168-.6-72.253l.101-89.062-.137-43.932c-.027-4.04.055-10.397-.104-14.312-.81-19.899 5.934-21.347 23.749-20.46 7.424.37 18.612-1.687 24.833 4.295 2.132 2.062 1.434 6.623 1.76 9.4-.06 10.948-.221 21.885-.206 32.836l-.119 112.045v58.047c0 8.562.06 17.152.032 25.714-.004 1.477-1.015 2.902-1.886 4.022q-1.576 1.386-3.101 2.836-.312.13-.625.267c-5.527-.04-36.314.887-38.551-.5z"/><path fill="#d4add7" d="M204.93 401.894c4.464.373 9.87 1.107 14.26.573 2.875-.35 7.782-2.565 10.457-2.207 11.384 1.528 8.822 6.103 21.454 2.474l.07 87.355c.02 8.802-.204 18.11-.092 26.799q-1.576 1.386-3.101 2.836-.312.13-.625.267c-5.527-.04-36.314.887-38.551-.5l-3.816-3.173c.247-4.89.038-9.874.05-14.772.08-33.137-.7-66.538-.107-99.652"/><path fill="#b4a0cc" d="M213.234 494.512c5.73.267 26.175-.365 30.139.986.715 1.37.5.915.319 2.71l-.784.456c-4.187-.26-28.495.887-29.716.184-.519-1.406-.155-2.82.042-4.336"/><path fill="#b4a0cc" d="M221.648 482.1c3.91-.188 20.266-1.028 22.618 1.807l-.292.743c-2.489 1.657-3.413 1.414-6.367 1.472-3.287.067-23.867 1.705-24.027-2.71 1.313-1.359 6.057-1.225 8.068-1.311"/><defs><linearGradient id="a" x1="695.015" x2="851.552" y1="799.913" y2="1311.831" gradientUnits="userSpaceOnUse"><stop offset="0" stop-color="#9e8fbd"/><stop offset="1" stop-color="#bfa9d4"/></linearGradient></defs><path fill="url(#a)" d="M667.551 811.675c11.363-11.5 22.083-13.989 37.305-18.288 17.904-5.056 29.921-10.235 48.529-4.226 11.962 18.378 20.367 63.145 26.273 85.752a8314 8314 0 0 1 36.132 140.157c9.117 37.9 16.615 73.05 26.387 113.94 11.821 49.47 32.597 110.37 40.12 161.58.815 5.55-9.924 15.93-15.339 19.53-14.518 9.66-32.493 8.41-46.42 13.17-4.026 2.32-17.487 1.77-21.649-.57-7.62-6.23-11.425-10.92-14.737-20.37-10.972-31.3-15.32-65.24-22.816-97.51l-47.54-199.33c-14.545-59.361-32.677-118.114-46.224-177.729-.69-3.035-.124-12.656-.021-16.106" transform="matrix(.39258 0 0 .39277 -.001 0)"/><path fill="#897ca6" d="M332.376 491.865c1.385-.106.781-.263 1.906.334.435 1.186.477 1.103.164 2.317-2.295 3.083-15.6 4.686-20.27 5.722-.79.118-.66.032-1.51-.184-3.213-4.152 6.38-5.546 8.8-6.084 3.577-.801 7.301-1.426 10.91-2.105"/><path fill="#f1edec" fill-opacity=".012" d="M167.426 372.188c3.406 3.127 3.27 8.822 3.257 13.2-.014 4.71.466 11.946-2.89 15.56-.727-2.64.212-12.084.038-15.842a491 491 0 0 1-.405-12.918"/><path fill="#f1edec" fill-opacity=".012" d="M404.822 259.364c5.574 3.722 3.764 12.602 4.02 18.506.172 4.073-.103 8.607-2.485 11.97-.954-6.016 1.464-25.454-1.535-30.476"/><path fill="#f1edec" fill-opacity=".012" d="m167.044 482.43 2.546 3.123c.554 6.602.637 16.693.069 23.315l-2.614 2.906c-.05-1.968.257-4.454.407-6.48.574-7.715-.182-15.189-.408-22.864"/><path fill="#f1edec" fill-opacity=".008" d="M406.148 483.169c3.05 4.171 2.878 9.25 2.717 14.253-.157 4.682.691 10.562-2.752 13.987-.114-7.455 1.025-14.713.11-22.2-.212-1.74-.09-4.277-.075-6.04"/><path fill="#1c172c" d="M814.87 370.332c7.505-7.684 21.002-13.843 32.002-13.726 9.183.097 17.843 2.106 25.02 8.467 2.158 1.913 4.612 6.109 6.614 8.339l.805.012c1.943-1.11 2.238-2.686 3.682-4.145 20.736-20.932 63.665-16.628 68.14 16.683.887 6.594.55 13.269.518 19.746l-.18 29.323c-.043 5.393-1.033 13.877 3.062 18.115 1.468 1.52 4.691 2.816 6.572 3.845 4.196 2.298 6.524 1.351 5.504 6.665-2.423.97-47.667.849-52.904.495-.146-2.05-.255-4.104-.342-6.158 6.784-1.791 12.763-2.644 13.05-11.34.47-16.138.086-31.896.396-48.094.243-12.492-1.402-22.565-14.494-27.832-9.536-3.835-28.85 4.203-29.542 15.046-.855 13.454-.231 28.312-.44 41.863-.003 5.074-.11 10.785.228 15.836.122 2.121.495 4.218 1.104 6.253 1.629 5.263 8.55 7.458 13.363 8.546.055 1.791.318 3.586-.397 5.154-1.036.793-1.727 1.017-3.097.981-15.782-.408-31.579.17-47.345-.247-.66-.02-1.229-.247-1.818-.515-.863-1.39-.596-3.012-.55-4.713 3.361-1.111 10.027-3.11 11.798-6.476 2.446-3.551 2.599-9.478 2.218-13.677-1.523-16.81 2.163-39.76-2.446-55.603-.016-.06-.023-.121-.043-.179-1.986-5.453-5.312-9.849-10.8-12.153-5.225-2.192-11.416-1.511-16.563.56-5.048 2.035-10.501 5.796-12.543 11.049-2.076 5.337-2.155 53.137-1.503 61.613.173 2.204.377 5.055 1.433 7.011 2.48 4.6 7.985 6.021 12.602 7.38.337 2.69 1.048 3.967-.986 5.935-2.626.377-16.162.255-19.401.169-9.972-.264-21.977.388-31.748-.24l.043-5.518c5.355-2.455 7.824-2.498 12.206-6.995.494-2.31 1.056-4.51 1.173-6.882.381-7.922.68-64.608-.965-68.87-1.975-5.121-10.675-3.937-12.437-8.066-.57-1.328.05-2.54.608-3.73 2.477-.868 6.945-1.482 9.654-2.028 6.093-1.228 12.099-2.329 18.14-3.845 3.522-.97 7.126-2.619 10.369-.3.479 3.244.125 8.67.24 12.246"/><path fill="#120a1c" d="M804.262 358.386c3.521-.97 7.125-2.619 10.368-.3-.609 3.977.31 7.271-.825 11.647-.412-2.443-.29-8.92-1.209-9.902-2.367.755-5.464-1.099-8.334-1.445"/><path fill="#1c172c" d="M1036.48 303.751c15.153-1.187 29.906 3.262 43.752 8.887 2.996-1.577 6.863-3.814 10.148-1.966.982 1.802-.137 35.423-.243 40.185-2.073.072-4.248-.026-6.328-.077-3.055-8.203-5.383-14.632-10.851-21.895-11.609-15.417-39.753-19.204-54.945-7.43-4.593 3.559-7.962 9.664-8.456 15.58-2.105 26.164 35.355 31.586 53.912 39.703 19.63 8.586 36.443 21.527 35.18 45.38-.566 10.687-6.953 24.614-15.665 31.244-12.374 9.418-33.09 14.945-48.558 13.095-7.525-.597-15.514-1.854-22.757-4.054-4.798-1.457-10.321-4.913-15.268-5.196-2.603-.145-5.044 1.426-7.565 1.885-1.393.26-2.815-.066-3.914-.974-1.15-.954-1.154-1.932-1.225-3.323-.188-3.813-.14-40.21.7-40.902 1.338-1.104 4.643-.593 6.308-.523 1.37 2.31 2.312 6.387 3.247 9.113 2.732 8.5 7.03 15.506 13.477 21.63 16.622 15.792 56.908 18.447 64.826-8.072.57-1.897 1.484-4.54 1.327-6.512-1.602-20.302-21.525-26.602-37.766-32.513-21.96-8.109-49.005-17.715-50.776-45.265-.667-10.384 1.79-20.661 8.597-28.799 11.165-13.345 26.048-17.717 42.843-19.201"/><path fill="#1c172c" d="M1138.122 305.231c2.85-.818 4.844-1.632 7.765-.947.77.639.805.397.836 1.71.157 6.643.228 14.016.079 20.658-.106 4.796.322 13.076-.087 17.475.118 3.347-.243 25.566.601 26.457 3.345.076 9.9-7.726 14.255-9.872 14.337-7.068 33.78-6.034 45.272 5.819 6.446 6.651 8.024 12.358 9.241 20.945.79 5.249.561 13.02.561 18.49l-.004 27.981c.004 5.267-.91 15.636 2.843 19.611 2.924 3.174 7.137 4.042 11.149 5.142-.07 1.936-.086 2.961-.444 4.89-2.096 1.044-46.626 1.001-50.042.117-.588-1.425-.424-3.53-.42-5.141 3.455-.954 8.19-2.498 10.188-5.624.369-.57.75-1.151 1.064-1.756 2.14-4.136 1.19-54.787.502-62.855-.177-2.06-.734-3.985-1.339-5.954-.149-1.449-2.053-4.37-3.01-5.562-11.378-14.336-40.079-5.719-40.558 12.67-.4 15.366.247 30.94-.008 46.328-.05 3.083-.16 7.459.212 10.456.255 2.093.93 4.116 1.983 5.942 1.676 2.855 3.529 3.979 6.603 4.996 4.53 1.5 4.134 2.726 3.725 6.866-5.806.526-49.162.746-51.541-.511-.6-1.473-.38-2.875-.326-4.501 4.927-1.646 13.199-4.042 13.811-10.192.6-6.041.455-12.341.463-18.425l-.004-30.18c-.031-23.722.153-47.441.012-71.162-.07-3.995-1.99-6.276-5.449-8.053-2.736-1.407-7.117-1.493-9.068-3.87-.793-.968-.22-2.643.145-3.68 1.865-1.232 26.817-7.191 30.99-8.268"/><path fill="#120a1c" d="M1138.122 305.231c2.85-.818 4.844-1.632 7.765-.947.77.639.805.397.836 1.71.157 6.643.228 14.016.079 20.658-.106 4.796.322 13.076-.087 17.475-1.64-2.422 0-29.874-.934-34.791-.42-2.209-5.559-2.95-7.66-4.105"/><path fill="#1c172c" d="M524.55 305.6c7.302-.437 17.587-.11 25.113-.105l46.674.03 24.925-.04c3.78-.016 12.668-.265 15.974.442.604 1.622.545 38.482.035 39.602-1.233.718-5.532 1.282-5.92.519-5.335-10.452-5.751-24.165-20.026-27.232-7.612-1.635-18.156-1.28-26.506-1.222-7.671.053-17.804-1.752-17.403 9.714-.29 17.292-.629 34.857.153 52.101 1.664 2.76 9.787 1.659 12.582 1.665 18.828.042 21.266-2.728 25.957-19.599 2.917-.344 3.718-.378 6.639-.145q-.164 21.707-.028 43.415c.024 2.518.762 5.346-.765 7.172-8.586 4.6-6.25-10.4-11.456-14.54-3.859-3.067-7.938-5.474-13.261-5.193-3.412.18-18-.807-19.759.865-.357 2.922-.278 15.05-.16 18.37.36 10.388-.935 26.503 1.33 36 7.232 8.087 9.351 8.72 19.743 10.892.047 1.865.212 3.546-.247 5.341-4.287 1.505-56.865.84-63.728.468-.098-2.133-.054-4.246-.035-6.379 4.782-1.158 10.49-2.718 13.988-6.374l1.747-1.791q.489-2.052.883-4.12c.817-4.368.648-13.85.683-18.763l.067-34.995-.028-40.675c-.015-7.163.157-14.353-.27-21.503-.703-11.777-6.458-14.875-17.015-16.735-.067-2.668-.106-4.535.114-7.186"/><path fill="#1c172c" d="m1238.351 402.05.204-.73c1.111-4.037 1.594-7.945 3.14-12.001 9.788-25.711 36.726-37.973 62.915-30.955 10.604 2.841 19.716 9.367 25.168 19.053 3.004 5.61 9.803 22.156 1.5 25.95-11.267 5.141-25.101 4.151-37.075 5.196q-15.3.165-30.597.13c.133 3.68.56 16.402 3.175 18.7 1.104 7.022 8.77 15.678 15 18.934 12.057 6.304 27.682 4.238 38.748-3.256 2.764-1.873 7.428-9.599 9.077-10.094 2.567.044 3.745 1.512 5.669 3.201-8.618 17.341-21.616 27.726-41.205 29.972-12.657 1.45-28.074-2.136-38.1-10.157-9.092-7.274-16.225-21.421-17.38-32.945l-.137-.514c-1.613-5.923-1.268-14.533-.102-20.483m50.58-4.202c5.1-.145 15.518.35 18.883-3.452 5.272-5.964-1.716-18.586-6.945-22.746-4.397-3.494-8.821-5.012-14.254-4.68-14.703 2.257-21.946 15.88-22.185 29.417-.012.656.298.746.718 1.182 3.463.967 19.358.35 23.783.28"/><path fill="#1c172c" d="M1460.142 298.37c1.79-.232 3.596-.36 5.402-.384 11.97-.245 23.06 3.346 29.643 13.95 7.581 12.212-12.009 18.45-16.845 8.307-1.347-2.827-2.25-7.046-4.55-9.127-9.752-8.814-21.84-2.443-25.416 8.79-1.943 5.984-1.28 10.406-.773 16.52.318 6.809 1.33 13.852 1.213 20.392l-.012.58c6.407.534 17.76.319 24.587.402l-.031 11.998c-5.037.377-20.795-.558-24.371.71-.974 1.819-.746 15.87-.766 18.971q-.095 15.829.012 31.652c.059 7.773-.444 25.471 3.121 31.846 3.572 3.55 6.089 4.14 10.925 4.96q-.04 3.24-.164 6.481c-5.253.22-49.528.578-52.708-.416-.499-1.595-.267-3.936-.216-5.683 7.761-1.827 14.608-4.038 14.545-13.48-.153-23.146-.094-46.295-.027-69.436.004-1.489-.346-2.791-.927-4.14-2.536-2.59-11.675-1.606-16.103-1.925q.064-3.828.247-7.653c5.107-3.613 10.43-2.597 15.746-5.056 1.818-1.753.887-10.12.895-11.978.126-26.86 9.485-41.784 36.573-46.282"/><path fill="#f1edec" fill-opacity=".122" d="M217.239 571.667a6619 6619 0 0 1 72.286-.067c41.091.145 82.385.88 123.207 5.896 3.423.42 12.727.663 14.427 3.727l-.373.809c-8.684 6.312-79.264 8.896-93.586 9.089a1712 1712 0 0 1-74.889.762c-18.711-.048-125.256-1.143-135.28-10.354-.108-.495-.311-.707.04-1.147 4.474-5.573 82.376-8.283 94.168-8.715"/><path fill="#1c172c" d="M1345.281 312.746c6.816-1.571 13.529-2.917 20.305-4.787 2.963-.817 15.593-4.93 17.901-3.777 1.197 3.351.966 18.67 1.033 22.938.451 28.836-.468 57.764-.613 86.549-.043 8.613-.436 30.015 1.249 37.54 3.894 4.616 7.647 6.458 13.606 7.341.248 2.369.216 3.386.114 5.739-5.614.306-50.54.616-52.75-.664-.794-1.516-.629-2.887-.664-4.635 5.653-2.046 8.307-2.973 12.747-6.98 1.606-4.901 1.119-9.245.985-14.312-.47-18.063-.486-36.146-.522-54.214q-.075-14.377.173-28.75c.126-6.461.463-13.056.338-19.51-.224-11.522-2.434-14.465-13.505-17.058z"/><path fill="#1c172c" d="M744.888 304.209c1.779-.21 2.05-.286 3.78-.022.892.696 1.053.88.998 2.163-.455 10.73-.542 21.381-.565 32.117l.039 80.363c.004 3.924.353 19.493-.04 22.576-2.12 16.587 14.389 14.324 15.979 19.776-.271 1.488-.22 1.433-1.049 2.679-4.196 1.457-43.933.652-50.815.652-1.44-.044-1.61-.165-2.524-.94-.707-1.716-.326-3.593-.165-5.514 11.4-2.627 13.89-3.766 14.039-16.182.078-6.245-.087-12.698-.09-18.947l.027-39.628-.18-33.18c.01-5.812.148-11.826.152-17.644 0-10.124-4.165-11.534-13.014-14.36-.47-1.661-1.11-3.29-1.707-4.913 3.187-1.017 7.376-1.677 10.72-2.506 7.774-1.926 16.929-3.772 24.415-6.49"/><path fill="#1c172c" d="M680.34 356.77c1.316-.128 1.893-.008 3.177.153 2.63 1.834.78 71.55 1.272 80.013.855 14.78-2.47 16.438 14.085 21.61l.416 5.829c-4.993.212-11.75-.012-16.85-.016l-33.608-.015c-1.393-.146-2.277-.055-3.27-.998-.758-1.394-.53-2.922-.51-4.576 17.897-4.748 14.085-11.335 14.596-27.921.498-16.167-.043-32.557.027-48.738.04-9.91-6.473-10.946-14.447-13.017-.047-1.854.02-3.862.048-5.73 10.576-2.547 23.648-3.603 35.065-6.594"/><path fill="#897ca6" d="M672.681 289.972c4.122 1.493 3.88 13.088 8.15 18.227 4.515 5.432 15.539 5.677 17.823 8.58l-.07.666c-4.527 2.46-13.8 5.068-17.533 8.165-4.95 4.11-3.996 14.45-7.957 18.351l-.126.253c-1.425-.377-4.911-13.95-7.675-17.608-5.445-7.215-14.843-4.666-17.513-9.104 1.504-3.156 14.16-4.262 17.698-10.334 3.411-5.85 4.703-11.046 7.203-17.196"/><path fill="#897ca6" d="M673.918 517.43c21.403-2.86 22.302 24.933 7.89 29.827-8.16 2.124-15.58-2.561-17.716-10.629a17.53 17.53 0 0 1 1.79-13.079c1.845-3.13 4.53-5.22 8.036-6.12m3.914 25.738c10.827-3.225 9.375-20.432-.758-21.512-2.909.896-5.095 2.49-6.47 5.283a11.7 11.7 0 0 0-.368 9.383c1.374 3.562 3.902 5.942 7.596 6.846"/><path fill="#897ca6" d="M883.315 540.898c-8.719-13.94 8.417-32.82 20.395-20.267 3.313 4.654 5.869 8.668 4.844 14.791a16 16 0 0 1-6.47 10.472c-6.783 4.772-14.89 1.952-18.769-4.996m4.385-5.48c.55 1.434 1.425 4.01 2.344 5.075 6.98 8.083 13.363-2.12 12.994-9.273-.212-4.167-1.224-5.416-3.933-8.024-3.832-1.685-5.5-1.198-9.379.008-2.58 3.33-2.976 4.882-2.461 9.175q.194 1.525.435 3.04"/><path fill="#f1edec" fill-opacity=".016" d="M122.313 529.472c-1.439-1.524-1.576-2.592-1.619-4.623q-.62-43.949-.376-87.905l.003-135.653c0-9.9-.67-93.697.493-96.38.534-1.234 1.351-1.838 2.527-2.385-1.215 4.942-.651 18.015-.7 23.826q-.271 31.065-.033 62.13l-.425 187.625.21 37.54c.019 2.451.36 14.278-.08 15.825"/><path fill="#f1edec" fill-opacity=".012" d="m425.534 237.167.899.719c1.13 13.402-.691 28.947.04 42.554.34 6.31 1.322 12.521 1.17 18.876.133 8.394-.48 15.65-.539 23.718l-.008 58.594-.004 112.911c0 11.732.872 23.716.55 35.302-1.048-.169-.99-.176-1.916-.718-.33-1.367-.33-11.238-.377-13.688-.514-26.469.071-53.098.106-79.638l-.05-134.32-.04-42.204c.008-7.088-.149-15.113.169-22.106"/><path fill="#897ca6" d="M762.15 547.877c-.79-.377-2.144-.742-2.195-1.54-.569-8.982-1.095-19.712-.121-28.57.039-.38 1.177-.671 1.472-.69 12.66-.759 27.398 2.874 15.126 17.434-.856 1.018-.424 1.96-.208 3.135 1.04.714 3.376 6.787 5.904 8.856l.067.774c-4.915 4.332-10.474-6.74-12.468-9.752-.82-1.014-.946-1.343-2.214-1.654-3 1.654-.146 9.745-3.545 11.976-.542-.063-1.268.008-1.818.031m9.928-17.53c5.26-5.093.385-8.746-5.39-8.648-.86 2.66-1.605 7.84 1.221 9.47 1.515.086 2.783-.142 4.17-.821"/><path fill="#897ca6" d="M1158.147 531.778c14.007 11.975-7.266 20.298-15.719 15.011-.863-2.439.083-25.981.86-29.068 1.229-.833 2.572-1.108 4.044-1.037 7.86.388 13.791 1.692 13.414 10.6-1.578-.062-1.735.09-3.184.688l-.573-.29c.558-1.725.852-2.204.145-3.736-1.264-1.112-1.503-1.025-3.27-1.21-2.08-1.202-3.776-1.033-5.979-.275-1.13 1.736-.49 5.695-.255 7.789 1.272.027 6.544-.095 7.235.027 1.174 1.772 1.01 1.866 3.282 1.5m-10.395 10.761c2.59.456 3.996.83 6.634.291 6.223-4.493 1.12-9.387-5.017-9.76-.753.283-1.264.275-1.41.829-.612 2.356-.215 6.182-.207 8.64"/><path fill="#897ca6" d="M1277.734 517.08c5.088.146 10.596.181 14.746 3.865 4.345 3.857.895 12.003-3.907 13.276l-1.146.251c-.286.805-.263.727-.416 1.532-1.087.742-1.68.538-3.015.436l-.687.781-.455.06c-.734-.712-1.264-.778-2.273-1.175-1.272 1.563-.966 9.395-.829 11.665a268 268 0 0 1-6.155-.216c.039-7.812-.24-21.645.243-29.752.02-.346 1.193-.683 1.688-.88.48.04 1.798.177 2.206.157m9.662 5.782c-2.627-1.414-4.75-1.41-7.667-1.571.027 2.403-.534 8.617.51 10.007.71.264.978.385 1.716.55 5.786-.373 8.185-3.515 5.44-8.986"/><path fill="#8071a4" d="M1273.597 547.555c.039-7.812-.24-21.645.243-29.752.02-.346 1.193-.683 1.688-.88.338 5.77.26 13.197.236 19.038 1.3-.008 3.67-.142 4.817.145-1.272 1.563-.966 9.395-.829 11.665a268 268 0 0 1-6.155-.216"/><path fill="#f1edec" fill-opacity=".016" d="M1279.729 521.29c2.917.162 5.04.158 7.667 1.572-2.395.082-3.392.082-5.814-.173q.248 4.577.373 9.16c-.738-.166-1.005-.287-1.716-.55-1.044-1.391-.483-7.605-.51-10.008"/><path fill="#897ca6" d="M712.638 517.363c9.418-1.496 5.932 1.532 5.594 8.535-.216 4.517-1.17 12.25 1.728 16.013 1.684 2.184 5.7 1.084 7.75.055 5.629-7.89 1.09-17.957 3.548-24.037 1.295-1.073 3.894-1.1 4.946.106.719 3.888-.003 18.07-1.005 22.16-3.191 10.84-17.206 10.514-21.313 2.278-2.528-5.071-1.413-19.309-1.248-25.11"/><path fill="#897ca6" d="M1186.346 516.99c8.397.165 30.307 1.477 15.586 15.86-.99.966-1.579 1.033-2.003 2.317l.13.59-.734.05c-2.108.122-2.422-.526-3.734.346-.125.884-.235 1.567-.294 2.467-1.233-1.862-1.696-2.18-3.918-2.447-1.649-.46-2.591.388-4.06-.774-.867-3.437-.513-13.794-.934-18.02zm11.64 13.48c1.904-1.379 3.906-3.83 1.83-6.163-2.124-2.392-4.668-2.443-7.636-2.592-.77 1.308-1.044 4.199-.99 5.738.165 4.58 3.447 4.45 6.796 3.017"/><path fill="#897ca6" d="M928.332 516.998c.68-.043 3.082-.224 3.553.153 4.868 3.86 4.923 12.506 7.942 18 1.162-4.084 4.37-14.866 7.659-17.34 1.539-1.159 3.262-.664 4.974-.31-1.323 3.385-3.274 6.842-4.358 9.846-.035 1.269-6.81 18.42-7.792 19.532l-.79-.055c-5.307-3.896-8.915-21.248-11.686-28.832z"/><path fill="#897ca6" fill-opacity=".98" d="M837.266 535.132c-.24 2.804-.283 16.017-6.054 11.669-.066-2.824 3.863-28.016 4.574-29.03l.82-.035c2.014 1.194 7.919 13.445 8.782 15.998l.687.286c2.446-1.736 2.862-6.893 4.794-9.69.05 2.562-.903 4.38-.153 7.126 2.728.954 3.227 1.76 2.877 4.63l-1.28-1.661c-1.939.345-3.344 6.15-4.059 8.11-.514 1.752-.687 2.982-1.912 4.31l-1.048.47c-1.947-.958-1.837-2.816-2.085-4.846.024-2.404-2.135-8.724-3.976-10.381l-.79.11c-.953 1.025-.918 1.56-1.177 2.934"/><path fill="#897ca6" fill-opacity=".984" d="M636.419 547.661c-1.613.051-5.272.519-5.001-1.881 1.122-10.004-2.336-17.899-8.048-25.852-.683-.947-.6-1.446-.448-2.44 6.215-4.48 9.21 8.402 12.15 10.735 2.56-1.198 4.617-8.24 6.698-10.404 1.072-1.116 3.902-1.006 4.88.149-2.627 4.034-4.582 7.085-6.706 11.39-.883 1.72-1.48 2.805-2.1 4.666-1.009 3.013-.243 11.379-1.425 13.637"/><path fill="#897ca6" fill-opacity=".976" d="M1320.785 528.722c-1.108-3.24-6.109-8.759-5.65-11.28 1.264-.806 2.638-.487 4.08-.177q.451.101.898.208c2.438 3.405 4.099 6.618 5.359 10.609l.553.42c2.093-.597 2.91-2.282 3.86-4.085 1.048-1.987 4.903-10.644 8.11-6.068-.118 1.716.079-.18-.55 1.257-2.677 6.158-6.618 10.97-7.784 17.737-.766 4.454 1.802 9.006-2.556 10.668-1.315-.303-1.865-.338-3.007-1.088-.334-2.216-.09-10.016.047-12.357-1.182-2.105-1.884-3.896-3.36-5.844"/><path fill="#897ca6" fill-opacity=".98" d="M1073.095 516.99c1.547-.079 1.708-.106 3.188.232 2.438 2.588-.377 20.993 1.248 24.929.84 2.038 9.316.447 13.466 1.626 1.083.954.73.385 1.123 1.755-.44 1.131-.37 1.135-1.198 1.996-3.89.09-15.656.648-18.655-.7-1.617-2.957-.275-23.911-.165-28.487 0 0 .88-1.194.993-1.351"/><path fill="#897ca6" d="m1238.402 518.958 1.229-.652c3.282 1.956 8.004 16.787 9.159 20.86.369 1.292 2.803 5.997 3.564 7.58-1.566.923-2.47 1.43-4.244 1.15-2.948-1.582-3.03-6.126-5.959-6.413-1.994-.193-5.096-.04-7.176.016-.546 1.068-2.466 5.29-3.266 5.695l-3.035-.307-.153-.573c.84-2.475 3.721-8.11 5.12-10.37.246.951.403.967 1.09 1.713 1.52.637 3.62.185 5.363.004 1.139-.11 1.225.008 2.077-.699.451-2.188-1.437-3.574-1.374-5.785-.04-1.709.078-2.35-.617-3.853-1.346-.837-1.217-.542-3.101-.542l-.412-.735c.094-2.191 1.072-4.91 1.735-7.09"/><path fill="#897ca6" d="M1003.864 516.962c4.071.118 14.832-.6 17.576.947.848 1.19.632.522.475 2.133-2.312 3.205-9.37 1.52-13.387 1.865q-.094 3.434-.07 6.874c3.717.177 9.775-.605 11.867 1.135.475 1.618.467.836.086 2.439-2.87 3.645-8.33-.244-11.671 2.172l-.448.813c-1.248.224-2.543.4-3.804.585l-.2-1.68c-.628-5.095-.078-11.745-.424-17.283"/><path fill="#897ca6" fill-opacity=".98" d="M1113.162 517.28c1.708-.27 3.867-.534 4.903 1.018.31 3.122.699 27.446-.098 29.45-1.005.094-5.661.545-5.634-1.23.079-4.485-.855-26.633.829-29.237"/><defs><linearGradient id="b" x1="2197.866" x2="2163.631" y1="1378.352" y2="1340.202" gradientUnits="userSpaceOnUse"><stop offset="0" stop-color="#8a7ea9" stop-opacity=".969"/><stop offset="1" stop-color="#8a7ea9"/></linearGradient></defs><path fill="url(#b)" d="M2167.39 1334.97c1.24-5.19 6.62-13.93 12.38-14.63 4.74 2.67 4.44 17.07 5.71 22.99 3.48 16.15 5.72 33.09 9.15 49.18-4.41 2.06-9 1.55-13.59.4-2.8-3.14-.98-5.78-3.74-9.47-.82-6.24-1.9-12.34-2.97-18.54.89-7.31-.38-9.36-7.33-11.79-1.91-6.99.52-11.62.39-18.14" transform="matrix(.39258 0 0 .39277 -.001 0)"/><path fill="#8071a4" fill-opacity=".976" d="M973.875 516.982c2.018-.15 3.278-.593 4.676.955.42 5.149-.043 11.531-.032 16.806.008 3.684.212 8.57-.008 12.125l-.698.436c-1.457.059-3.243-.047-4.727-.09.051-7.475-.377-21.234.035-29.234q.378-.499.754-.998m2.324 18.9c.671-2.946.675-14.155.565-17.58-.55-.813-.298-.57-1.142-1.12-1.205 1.733-.942 17.215-.05 18.456z"/><path fill="#897ca6" fill-opacity=".988" d="M975.622 517.182c.844.55.593.307 1.142 1.12.11 3.425.106 14.634-.565 17.58l-.628-.244c-.891-1.24-1.154-16.723.051-18.456"/><path fill="#f1edec" fill-opacity=".012" d="M1216.084 387.476c.483-1.301.082-.842 1.02-1.59 2.874 3.38 2.125 13.86 2.125 18.467v23.283c-.02 5.553-.004 11.111.05 16.665.04 2.474.346 6.991.205 9.257-3.753-3.975-2.839-14.344-2.843-19.61l.004-27.981c0-5.471.228-13.242-.561-18.49"/><path fill="#8071a4" d="M1003.864 516.962c.346 5.538-.204 12.188.424 17.282l.2 1.681c1.26-.184 2.556-.361 3.804-.585.134 2.388.06 5.393.067 7.836 3.745.2 10.082-.696 13.552.483.408.137.4.742.53 1.312-.934 3.157-3.934 3.051-6.796 3.004-4.192-.074-8.526.075-12.582-1.088-1.126-1.751-.2-23.15-.49-26.869-.13-1.642.306-2.148 1.291-3.056"/><path fill="#f1edec" fill-opacity=".016" d="M1189.915 452.942c-.48-3.374-.008-17.486-.012-21.834l-.204-33.872c0-3.335-.26-12.258.443-14.859.605 1.969 1.162 3.894 1.34 5.954.686 8.068 1.636 58.72-.503 62.855-.314.605-.695 1.186-1.064 1.756"/><path fill="#f1edec" fill-opacity=".016" d="M855.391 383.175c4.609 15.844.923 38.793 2.446 55.603.38 4.2.228 10.126-2.218 13.677-.668-2.369.09-9.855.063-13.178l-.236-35.392c-.067-6.469-.471-14.364-.055-20.71"/><path fill="#f1edec" fill-opacity=".012" d="m728.424 516.688 10.27.043c-.425 6.453.914 14.438-1.045 20.318-.275.828-1.821 2.47-2.45 3.146 1.002-4.09 1.724-18.272 1.005-22.16-1.052-1.206-3.65-1.179-4.946-.106-2.458 6.08 2.08 16.146-3.549 24.037-.094-1.787.04-3.55.212-5.326.644-6.65.624-13.28.503-19.952"/><path fill="#8071a4" fill-opacity=".988" d="M1191.379 536.173c-.416 3.362.471 7.207-.393 10.435-.318 1.187-4.436.857-5.578.295-.644-2.274-.455-24.351-.326-28.224.035-1.049.542-1.155 1.264-1.689l.04.389c.42 4.226.066 14.583.934 18.02 1.468 1.162 2.41.314 4.059.774"/><path fill="#897ca6" fill-opacity=".894" d="M1231.709 547.194c-1.724.404-3.667.671-5.135-.432 1.456-3.355 10.317-27.062 11.828-27.804-.663 2.18-1.64 4.898-1.735 7.09l.412.734c1.884 0 1.755-.295 3.101.542.695 1.504.577 2.144.617 3.853-.605-1.25-.68-1.674-1.861-2.412-2.54.385-3.094 5.888-2.858 7.977.734.774 2.556.676 4.016.92-1.743.18-3.843.632-5.363-.005-.687-.746-.844-.762-1.09-1.712-1.399 2.258-4.28 7.894-5.12 10.369l.153.573z"/><path fill="#8071a4" fill-opacity=".984" d="m1283.309 537.221.687-.781c1.335.102 1.928.306 3.015-.436.153-.805.13-.727.416-1.532l1.146-.251c.868 3.994 8.488 10.451 6.937 13.381-4.287 1.583-9.763-7.191-12.201-10.38"/><path fill="#f1edec" fill-opacity=".008" d="M1263.606 408.693q15.298.035 30.597-.13c-2.461 1.74-25.808.624-27.802 1.956.059 5.487.09 11.422.38 16.873-2.614-2.297-3.042-15.02-3.175-18.7"/><path fill="#897ca6" fill-opacity=".984" d="M1195.297 538.62c.059-.9.169-1.583.294-2.467 1.312-.872 1.626-.224 3.734-.346l.734-.05c.68.636 5.206 9.846 5.657 11.103-5.602 2.042-7.506-4.505-10.419-8.24"/><path fill="#f1edec" fill-opacity=".012" d="M1273.597 547.555c-1.052-.012-1.001.024-1.967-.37-.287-1.665-.18-3.471-.165-5.164.078-8.154.553-16.1.263-24.261.99-1.43 4.723-1.457 6.006-.68-.408.02-1.727-.118-2.206-.157-.495.197-1.668.534-1.688.88-.483 8.107-.204 21.94-.243 29.752"/><path fill="#f1edec" fill-opacity=".016" d="m1238.59 423.048-.997.094c-3.706-1.873-2.524-12.89-2.108-16.449.279-2.368.758-3.61 2.866-4.642-1.166 5.95-1.511 14.56.102 20.483z"/><path fill="#897ca6" fill-opacity=".953" d="M1147.63 530.25c-.235-2.094-.875-6.053.255-7.789.252 1.917.122 4.91.762 6.194 2.67 1.693 9.108-1.308 5.217-5.919 1.767.185 2.006.098 3.27 1.21.707 1.532.413 2.01-.145 3.735l.573.29c1.449-.596 1.606-.75 3.184-.687-1 .99-2.662 2.306-3.038 3.512l.44.982c-2.274.365-2.109.27-3.283-1.5-.69-.123-5.963 0-7.235-.028"/><path fill="#f1edec" fill-opacity=".012" d="M1320.785 528.722c1.476 1.948 2.178 3.739 3.36 5.844-.137 2.341-.38 10.141-.047 12.357 1.142.75 1.692.785 3.007 1.088-.871 1.111-5.421.487-5.453-1.08-.114-5.476.514-12.875-.867-18.21"/><path fill="#f1edec" fill-opacity=".012" d="M636.419 547.661c1.182-2.258.416-10.624 1.425-13.637.62-1.861 1.217-2.946 2.1-4.666.17 2.062-.235 16.74-.899 17.832-1.228.624-1.283.53-2.626.471"/><path fill="#f1edec" fill-opacity=".024" d="M837.266 535.132c.259-1.375.224-1.909 1.178-2.934l.789-.11c1.84 1.657 4 7.977 3.976 10.38-2.838-1.15-4.302-4.59-5.943-7.336"/><path fill="#f1edec" fill-opacity=".02" d="M848.254 542.535c.715-1.96 2.12-7.765 4.06-8.11l1.28 1.661c.42 2.435.843 4.831 1.165 7.282-1.119-.77-1.743-1.78-2.622-2.875-1.21.004-2.564 1.28-3.883 2.042"/><path fill="#f1edec" fill-opacity=".016" d="M1280.58 536.106c1.01.397 1.54.463 2.274 1.174l-.77.326c-.487 3.083.471 7.973-.997 9.768l-1.335.397c-.137-2.27-.443-10.102.829-11.665"/><path fill="#f1edec" fill-opacity=".012" d="m1398.762 458.55.778-.341c2.014 1.005 1.986 3.26 1.444 5.192-.746.805-.887 1.12-2.108.888.102-2.353.134-3.37-.114-5.739"/></svg>